<svg width="48" height="48" viewBox="0 0 48 48" fill="none" xmlns="http://www.w3.org/2000/svg">
<path d="M28 12L20 12" stroke="#D95224" stroke-width="3" stroke-linecap="round"/>
<path d="M5 45L5.64537 44.3116C9.42861 40.2761 9.21704 33.9359 5.17318 30.1616L5 30" stroke="#152C5B" stroke-width="3" stroke-linecap="round"/>
<path d="M43 45L41.9899 43.7735C38.6257 39.6884 39.0267 33.6895 42.9047 30.0885L43 30" stroke="#152C5B" stroke-width="3" stroke-linecap="round"/>
<path d="M13 45L14.5749 42.4229C16.8992 38.6195 16.4256 33.737 13.4136 30.4512L13 30" stroke="#152C5B" stroke-width="3" stroke-linecap="round"/>
<path d="M34.5 45L33.4899 43.7735C30.1257 39.6884 30.5267 33.6895 34.4047 30.0885L34.5 30" stroke="#152C5B" stroke-width="3" stroke-linecap="round"/>
<path d="M1.5 8C1.5 6.61929 2.61929 5.5 4 5.5H44C45.3807 5.5 46.5 6.61929 46.5 8V22C46.5 23.3807 45.3807 24.5 44 24.5H4C2.61929 24.5 1.5 23.3807 1.5 22V8Z" stroke="#152C5B" stroke-width="3"/>
<path d="M46 19L2 19" stroke="#152C5B" stroke-width="3" stroke-linecap="round"/>
</svg>
