<svg width="48" height="48" viewBox="0 0 48 48" fill="none" xmlns="http://www.w3.org/2000/svg">
<path d="M13.5 19C13.5 17.6193 14.6193 16.5 16 16.5H20C21.3807 16.5 22.5 17.6193 22.5 19V25.5H13.5V19Z" stroke="#D95224" stroke-width="3"/>
<path d="M26.5 19C26.5 17.6193 27.6193 16.5 29 16.5H33C34.3807 16.5 35.5 17.6193 35.5 19V25.5H26.5V19Z" stroke="#D95224" stroke-width="3"/>
<path d="M8.5 11C8.5 6.30558 12.3056 2.5 17 2.5H32C36.6944 2.5 40.5 6.30558 40.5 11V24.5H8.5V11Z" stroke="#152C5B" stroke-width="3"/>
<mask id="path-4-inside-1" fill="white">
<path d="M0 28C0 25.7909 1.79086 24 4 24H44C46.2091 24 48 25.7909 48 28V38C48 39.1046 47.1046 40 46 40H2C0.895431 40 0 39.1046 0 38V28Z"/>
</mask>
<path d="M0 28C0 25.7909 1.79086 24 4 24H44C46.2091 24 48 25.7909 48 28V38C48 39.1046 47.1046 40 46 40H2C0.895431 40 0 39.1046 0 38V28Z" stroke="#152C5B" stroke-width="6" mask="url(#path-4-inside-1)"/>
<path d="M43 43H5" stroke="#152C5B" stroke-width="3" stroke-linecap="round"/>
<path d="M5 39L5 47" stroke="#152C5B" stroke-width="3" stroke-linecap="round"/>
<path d="M43 39L43 47" stroke="#152C5B" stroke-width="3" stroke-linecap="round"/>
</svg>
