<svg width="48" height="47" viewBox="0 0 48 47" fill="none" xmlns="http://www.w3.org/2000/svg">
<path d="M5.5 28.5H42.5V38C42.5 39.933 40.933 41.5 39 41.5H9C7.067 41.5 5.5 39.933 5.5 38V28.5Z" stroke="#152C5B" stroke-width="3"/>
<path d="M1.5 24C1.5 22.6193 2.61929 21.5 4 21.5H44C45.3807 21.5 46.5 22.6193 46.5 24V26C46.5 27.3807 45.3807 28.5 44 28.5H4C2.61929 28.5 1.5 27.3807 1.5 26V24Z" stroke="#152C5B" stroke-width="3"/>
<path d="M41 20L41 6.25694C41 5.61275 40.6897 5.00799 40.1664 4.6323L37.6664 2.83743C36.9693 2.33696 36.0307 2.33696 35.3336 2.83743L32 5.23077" stroke="#D95224" stroke-width="3" stroke-linecap="round"/>
<path d="M11 42L11 45" stroke="#152C5B" stroke-width="3" stroke-linecap="round"/>
<path d="M37 42L37 45" stroke="#152C5B" stroke-width="3" stroke-linecap="round"/>
</svg>
