<svg width="48" height="48" viewBox="0 0 48 48" fill="none" xmlns="http://www.w3.org/2000/svg">
<mask id="path-1-inside-1" fill="white">
<path d="M9 46C6.79086 46 5 44.2091 5 42L5 28C5 27.4477 5.44772 27 6 27L12 27C12.5523 27 13 27.4477 13 28L13 42C13 44.2091 11.2091 46 9 46Z"/>
</mask>
<path d="M9 46C6.79086 46 5 44.2091 5 42L5 28C5 27.4477 5.44772 27 6 27L12 27C12.5523 27 13 27.4477 13 28L13 42C13 44.2091 11.2091 46 9 46Z" stroke="#152C5B" stroke-width="6" mask="url(#path-1-inside-1)"/>
<mask id="path-2-inside-2" fill="white">
<path d="M38 46C35.7909 46 34 44.2091 34 42L34 28C34 27.4477 34.4477 27 35 27L41 27C41.5523 27 42 27.4477 42 28L42 42C42 44.2091 40.2091 46 38 46Z"/>
</mask>
<path d="M38 46C35.7909 46 34 44.2091 34 42L34 28C34 27.4477 34.4477 27 35 27L41 27C41.5523 27 42 27.4477 42 28L42 42C42 44.2091 40.2091 46 38 46Z" stroke="#152C5B" stroke-width="6" mask="url(#path-2-inside-2)"/>
<path d="M15 12L15 18" stroke="#152C5B" stroke-width="3" stroke-linecap="round"/>
<path d="M30 12L30 18" stroke="#152C5B" stroke-width="3" stroke-linecap="round"/>
<mask id="path-5-inside-3" fill="white">
<path d="M15 12C12.7909 12 11 10.2091 11 8L11 3C11 2.44772 11.4477 2 12 2L18 2C18.5523 2 19 2.44772 19 3L19 8C19 10.2091 17.2091 12 15 12Z"/>
</mask>
<path d="M15 12C12.7909 12 11 10.2091 11 8L11 3C11 2.44772 11.4477 2 12 2L18 2C18.5523 2 19 2.44772 19 3L19 8C19 10.2091 17.2091 12 15 12Z" stroke="#D95224" stroke-width="6" mask="url(#path-5-inside-3)"/>
<mask id="path-6-inside-4" fill="white">
<path d="M30 12C27.7909 12 26 10.2091 26 8L26 3C26 2.44772 26.4477 2 27 2L33 2C33.5523 2 34 2.44772 34 3L34 8C34 10.2091 32.2091 12 30 12Z"/>
</mask>
<path d="M30 12C27.7909 12 26 10.2091 26 8L26 3C26 2.44772 26.4477 2 27 2L33 2C33.5523 2 34 2.44772 34 3L34 8C34 10.2091 32.2091 12 30 12Z" stroke="#D95224" stroke-width="6" mask="url(#path-6-inside-4)"/>
<path d="M7.44347 19.6964C7.89761 18.9532 8.70576 18.5 9.57667 18.5H38.4233C39.2942 18.5 40.1024 18.9532 40.5565 19.6964L43.001 23.6964C44.019 25.3623 42.8201 27.5 40.8678 27.5H7.13223C5.1799 27.5 3.98098 25.3623 4.99902 23.6964L7.44347 19.6964Z" stroke="#152C5B" stroke-width="3"/>
</svg>
